<?xml version="1.0" encoding="UTF-8" standalone="no"?>
<!DOCTYPE svg PUBLIC "-//W3C//DTD SVG 1.1//EN"
 "http://www.w3.org/Graphics/SVG/1.1/DTD/svg11.dtd">
<!-- Generated by graphviz version 14.0.1 (0)
 -->
<!-- Pages: 1 -->
<svg width="274pt" height="332pt"
 viewBox="0.00 0.00 274.00 332.00" xmlns="http://www.w3.org/2000/svg" xmlns:xlink="http://www.w3.org/1999/xlink">
<g id="graph0" class="graph" transform="scale(1 1) rotate(0) translate(4 328)">
<polygon fill="white" stroke="none" points="-4,4 -4,-328 270,-328 270,4 -4,4"/>
<!-- 0 -->
<g id="node1" class="node">
<title>0</title>
<polygon fill="none" stroke="black" points="126.25,-252 0,-252 0,-216 126.25,-216 126.25,-252"/>
<text xml:space="preserve" text-anchor="middle" x="63.12" y="-228.95" font-family="Times,serif" font-size="14.00">temporalio&#45;sdk&#45;core</text>
</g>
<!-- 1 -->
<g id="node2" class="node">
<title>1</title>
<polygon fill="none" stroke="black" points="191,-108 81.25,-108 81.25,-72 191,-72 191,-108"/>
<text xml:space="preserve" text-anchor="middle" x="136.12" y="-84.95" font-family="Times,serif" font-size="14.00">temporalio&#45;client</text>
</g>
<!-- 0&#45;&gt;1 -->
<g id="edge1" class="edge">
<title>0&#45;&gt;1</title>
<path fill="none" stroke="black" d="M88.81,-215.72C100.5,-206.5 113.43,-194.14 121.12,-180 131.16,-161.58 134.8,-138.08 135.99,-119.85"/>
<polygon fill="black" stroke="black" points="139.48,-120.13 136.4,-109.99 132.49,-119.83 139.48,-120.13"/>
</g>
<!-- 2 -->
<g id="node3" class="node">
<title>2</title>
<polygon fill="none" stroke="black" points="158.38,-36 29.88,-36 29.88,0 158.38,0 158.38,-36"/>
<text xml:space="preserve" text-anchor="middle" x="94.12" y="-12.95" font-family="Times,serif" font-size="14.00">temporalio&#45;common</text>
</g>
<!-- 0&#45;&gt;2 -->
<g id="edge2" class="edge">
<title>0&#45;&gt;2</title>
<path fill="none" stroke="black" d="M35.48,-215.54C23.8,-206.51 11.45,-194.35 5.12,-180 -1.33,-165.36 0.25,-159.24 5.12,-144 17.5,-105.3 46.72,-68.34 68.32,-44.79"/>
<polygon fill="black" stroke="black" points="70.83,-47.23 75.14,-37.55 65.73,-42.43 70.83,-47.23"/>
</g>
<!-- 3 -->
<g id="node4" class="node">
<title>3</title>
<polygon fill="none" stroke="black" points="112.38,-180 13.88,-180 13.88,-144 112.38,-144 112.38,-180"/>
<text xml:space="preserve" text-anchor="middle" x="63.12" y="-156.95" font-family="Times,serif" font-size="14.00">temporalio&#45;sdk</text>
</g>
<!-- 0&#45;&gt;3 -->
<g id="edge3" class="edge">
<title>0&#45;&gt;3</title>
<path fill="none" stroke="blue" d="M57.21,-215.7C56.46,-208.41 56.21,-199.73 56.48,-191.54"/>
<polygon fill="blue" stroke="blue" points="59.97,-191.82 57.13,-181.61 52.98,-191.36 59.97,-191.82"/>
</g>
<!-- 1&#45;&gt;2 -->
<g id="edge4" class="edge">
<title>1&#45;&gt;2</title>
<path fill="none" stroke="black" d="M125.74,-71.7C121.06,-63.9 115.43,-54.51 110.22,-45.83"/>
<polygon fill="black" stroke="black" points="113.31,-44.18 105.17,-37.4 107.31,-47.78 113.31,-44.18"/>
</g>
<!-- 3&#45;&gt;0 -->
<g id="edge7" class="edge">
<title>3&#45;&gt;0</title>
<path fill="none" stroke="black" d="M69.02,-180.1C69.78,-187.37 70.03,-196.04 69.78,-204.24"/>
<polygon fill="black" stroke="black" points="66.29,-203.98 69.14,-214.19 73.27,-204.43 66.29,-203.98"/>
</g>
<!-- 3&#45;&gt;1 -->
<g id="edge5" class="edge">
<title>3&#45;&gt;1</title>
<path fill="none" stroke="black" d="M81.17,-143.7C89.86,-135.37 100.44,-125.22 109.98,-116.07"/>
<polygon fill="black" stroke="black" points="112.15,-118.84 116.94,-109.39 107.3,-113.79 112.15,-118.84"/>
</g>
<!-- 3&#45;&gt;2 -->
<g id="edge6" class="edge">
<title>3&#45;&gt;2</title>
<path fill="none" stroke="black" d="M63.38,-143.68C64,-125.56 65.97,-96.39 72.12,-72 74.27,-63.5 77.54,-54.58 80.91,-46.53"/>
<polygon fill="black" stroke="black" points="84.01,-48.17 84.85,-37.61 77.61,-45.34 84.01,-48.17"/>
</g>
<!-- 4 -->
<g id="node5" class="node">
<title>4</title>
<polygon fill="none" stroke="black" points="266,-324 90.25,-324 90.25,-288 266,-288 266,-324"/>
<text xml:space="preserve" text-anchor="middle" x="178.12" y="-300.95" font-family="Times,serif" font-size="14.00">temporalio&#45;sdk&#45;core&#45;c&#45;bridge</text>
</g>
<!-- 4&#45;&gt;0 -->
<g id="edge10" class="edge">
<title>4&#45;&gt;0</title>
<path fill="none" stroke="black" d="M149.4,-287.52C134.75,-278.6 116.73,-267.63 100.96,-258.03"/>
<polygon fill="black" stroke="black" points="103.14,-255.26 92.77,-253.05 99.5,-261.24 103.14,-255.26"/>
</g>
<!-- 4&#45;&gt;1 -->
<g id="edge8" class="edge">
<title>4&#45;&gt;1</title>
<path fill="none" stroke="black" d="M174.76,-287.85C167.54,-251.07 150.51,-164.29 141.67,-119.24"/>
<polygon fill="black" stroke="black" points="145.16,-118.86 139.8,-109.72 138.29,-120.2 145.16,-118.86"/>
</g>
<!-- 4&#45;&gt;2 -->
<g id="edge9" class="edge">
<title>4&#45;&gt;2</title>
<path fill="none" stroke="black" d="M186.41,-287.59C204.63,-246.52 243.27,-141.82 200.12,-72 192.07,-58.97 179.74,-49.04 166.3,-41.5"/>
<polygon fill="black" stroke="black" points="168.21,-38.55 157.71,-37.12 165.03,-44.78 168.21,-38.55"/>
</g>
</g>
</svg>
