<?xml version="1.0" encoding="UTF-8" standalone="no"?>
<!DOCTYPE svg PUBLIC "-//W3C//DTD SVG 1.1//EN"
 "http://www.w3.org/Graphics/SVG/1.1/DTD/svg11.dtd">
<!-- Generated by graphviz version 7.0.4 (0)
 -->
<!-- Pages: 1 -->
<svg width="436pt" height="404pt"
 viewBox="0.00 0.00 436.26 404.00" xmlns="http://www.w3.org/2000/svg" xmlns:xlink="http://www.w3.org/1999/xlink">
<g id="graph0" class="graph" transform="scale(1 1) rotate(0) translate(4 400)">
<polygon fill="white" stroke="none" points="-4,4 -4,-400 432.26,-400 432.26,4 -4,4"/>
<!-- 0 -->
<g id="node1" class="node">
<title>0</title>
<polygon fill="none" stroke="black" points="255,-396 139,-396 139,-360 255,-360 255,-396"/>
<text text-anchor="middle" x="197" y="-374.3" font-family="Times,serif" font-size="14.00">temporal&#45;sdk&#45;core</text>
</g>
<!-- 1 -->
<g id="node2" class="node">
<title>1</title>
<polygon fill="none" stroke="black" points="58,-324 0,-324 0,-288 58,-288 58,-324"/>
<text text-anchor="middle" x="29" y="-302.3" font-family="Times,serif" font-size="14.00">rustfsm</text>
</g>
<!-- 0&#45;&gt;1 -->
<g id="edge1" class="edge">
<title>0&#45;&gt;1</title>
<path fill="none" stroke="black" d="M155.04,-359.52C128.68,-348.53 94.87,-334.45 68.91,-323.63"/>
<polygon fill="black" stroke="black" points="70.28,-320.41 59.7,-319.79 67.59,-326.87 70.28,-320.41"/>
</g>
<!-- 3 -->
<g id="node3" class="node">
<title>3</title>
<polygon fill="none" stroke="black" points="368,-108 268,-108 268,-72 368,-72 368,-108"/>
<text text-anchor="middle" x="318" y="-86.3" font-family="Times,serif" font-size="14.00">temporal&#45;client</text>
</g>
<!-- 0&#45;&gt;3 -->
<g id="edge2" class="edge">
<title>0&#45;&gt;3</title>
<path fill="none" stroke="black" d="M255.43,-370.58C312.02,-363.02 391.98,-348.3 411,-324 461.94,-258.91 386.25,-162.28 343.68,-116.65"/>
<polygon fill="black" stroke="black" points="346.38,-114.4 336.95,-109.58 341.31,-119.23 346.38,-114.4"/>
</g>
<!-- 4 -->
<g id="node4" class="node">
<title>4</title>
<polygon fill="none" stroke="black" points="298.5,-36 143.5,-36 143.5,0 298.5,0 298.5,-36"/>
<text text-anchor="middle" x="221" y="-14.3" font-family="Times,serif" font-size="14.00">temporal&#45;sdk&#45;core&#45;protos</text>
</g>
<!-- 0&#45;&gt;4 -->
<g id="edge5" class="edge">
<title>0&#45;&gt;4</title>
<path fill="none" stroke="black" d="M170.41,-359.59C137.57,-335.74 86,-289.6 86,-235 86,-235 86,-235 86,-161 86,-107.38 137.19,-65.95 176.53,-42.03"/>
<polygon fill="black" stroke="black" points="178.08,-45.18 184.93,-37.1 174.53,-39.14 178.08,-45.18"/>
</g>
<!-- 5 -->
<g id="node5" class="node">
<title>5</title>
<polygon fill="none" stroke="black" points="289.5,-180 152.5,-180 152.5,-144 289.5,-144 289.5,-180"/>
<text text-anchor="middle" x="221" y="-158.3" font-family="Times,serif" font-size="14.00">temporal&#45;sdk&#45;core&#45;api</text>
</g>
<!-- 0&#45;&gt;5 -->
<g id="edge4" class="edge">
<title>0&#45;&gt;5</title>
<path fill="none" stroke="black" d="M188.08,-359.89C173.64,-329.74 148.72,-265.64 169,-216 173.27,-205.55 180.7,-196.05 188.64,-188.07"/>
<polygon fill="black" stroke="black" points="190.92,-190.72 195.87,-181.35 186.16,-185.59 190.92,-190.72"/>
</g>
<!-- 6 -->
<g id="node6" class="node">
<title>6</title>
<polygon fill="none" stroke="black" points="266.5,-252 177.5,-252 177.5,-216 266.5,-216 266.5,-252"/>
<text text-anchor="middle" x="222" y="-230.3" font-family="Times,serif" font-size="14.00">temporal&#45;sdk</text>
</g>
<!-- 0&#45;&gt;6 -->
<g id="edge3" class="edge">
<title>0&#45;&gt;6</title>
<path fill="none" stroke="blue" d="M195.45,-359.59C197.18,-335.5 204.59,-291.75 211.56,-263.03"/>
<polygon fill="blue" stroke="blue" points="214.89,-264.13 214.02,-253.58 208.12,-262.37 214.89,-264.13"/>
</g>
<!-- 7 -->
<g id="node7" class="node">
<title>7</title>
<polygon fill="none" stroke="black" points="401.5,-324 234.5,-324 234.5,-288 401.5,-288 401.5,-324"/>
<text text-anchor="middle" x="318" y="-302.3" font-family="Times,serif" font-size="14.00">temporal&#45;sdk&#45;core&#45;test&#45;utils</text>
</g>
<!-- 0&#45;&gt;7 -->
<g id="edge6" class="edge">
<title>0&#45;&gt;7</title>
<path fill="none" stroke="blue" d="M221.29,-359.52C235.94,-350.51 254.96,-339.42 272.29,-329.76"/>
<polygon fill="blue" stroke="blue" points="273.86,-332.89 280.93,-324.99 270.48,-326.76 273.86,-332.89"/>
</g>
<!-- 3&#45;&gt;4 -->
<g id="edge7" class="edge">
<title>3&#45;&gt;4</title>
<path fill="none" stroke="black" d="M294.02,-71.7C282.01,-63.03 267.28,-52.4 254.21,-42.96"/>
<polygon fill="black" stroke="black" points="256.42,-40.25 246.27,-37.23 252.33,-45.92 256.42,-40.25"/>
</g>
<!-- 5&#45;&gt;3 -->
<g id="edge8" class="edge">
<title>5&#45;&gt;3</title>
<path fill="none" stroke="black" d="M244.98,-143.7C256.99,-135.03 271.72,-124.4 284.79,-114.96"/>
<polygon fill="black" stroke="black" points="286.67,-117.92 292.73,-109.23 282.58,-112.25 286.67,-117.92"/>
</g>
<!-- 5&#45;&gt;4 -->
<g id="edge9" class="edge">
<title>5&#45;&gt;4</title>
<path fill="none" stroke="black" d="M221,-143.59C221,-119.61 221,-76.14 221,-47.42"/>
<polygon fill="black" stroke="black" points="224.5,-47.62 221,-37.62 217.5,-47.62 224.5,-47.62"/>
</g>
<!-- 6&#45;&gt;0 -->
<g id="edge11" class="edge">
<title>6&#45;&gt;0</title>
<path fill="none" stroke="black" d="M223.57,-252.11C221.89,-276.03 214.51,-319.76 207.53,-348.6"/>
<polygon fill="black" stroke="black" points="204.18,-347.56 205.06,-358.12 210.96,-349.32 204.18,-347.56"/>
</g>
<!-- 6&#45;&gt;3 -->
<g id="edge10" class="edge">
<title>6&#45;&gt;3</title>
<path fill="none" stroke="black" d="M258.49,-215.67C273.19,-206.93 288.99,-194.98 299,-180 310.95,-162.11 315.57,-138.07 317.27,-119.49"/>
<polygon fill="black" stroke="black" points="320.75,-119.9 317.91,-109.69 313.76,-119.44 320.75,-119.9"/>
</g>
<!-- 6&#45;&gt;4 -->
<g id="edge13" class="edge">
<title>6&#45;&gt;4</title>
<path fill="none" stroke="black" d="M181.41,-215.53C166.89,-207.06 152.12,-195.34 144,-180 136.51,-165.86 139.64,-159.39 144,-144 154.67,-106.33 180.26,-68.86 199.02,-44.92"/>
<polygon fill="black" stroke="black" points="201.6,-47.29 205.13,-37.31 196.14,-42.91 201.6,-47.29"/>
</g>
<!-- 6&#45;&gt;5 -->
<g id="edge12" class="edge">
<title>6&#45;&gt;5</title>
<path fill="none" stroke="black" d="M221.75,-215.7C221.65,-208.41 221.52,-199.73 221.41,-191.54"/>
<polygon fill="black" stroke="black" points="224.91,-191.57 221.27,-181.62 217.91,-191.67 224.91,-191.57"/>
</g>
<!-- 7&#45;&gt;0 -->
<g id="edge16" class="edge">
<title>7&#45;&gt;0</title>
<path fill="none" stroke="black" d="M294.08,-324.26C279.5,-333.23 260.5,-344.31 243.14,-354"/>
<polygon fill="black" stroke="black" points="241.54,-350.89 234.48,-358.78 244.93,-357.01 241.54,-350.89"/>
</g>
<!-- 7&#45;&gt;3 -->
<g id="edge14" class="edge">
<title>7&#45;&gt;3</title>
<path fill="none" stroke="black" d="M318.57,-287.61C319.46,-258.08 320.99,-196.26 320,-144 319.85,-136.05 319.57,-127.44 319.27,-119.51"/>
<polygon fill="black" stroke="black" points="322.78,-119.54 318.87,-109.69 315.78,-119.83 322.78,-119.54"/>
</g>
<!-- 7&#45;&gt;4 -->
<g id="edge18" class="edge">
<title>7&#45;&gt;4</title>
<path fill="none" stroke="black" d="M331.1,-287.73C360.65,-246.5 426.21,-140.69 377,-72 361.19,-49.92 335.65,-36.93 309.77,-29.32"/>
<polygon fill="black" stroke="black" points="310.71,-25.95 300.15,-26.77 308.92,-32.72 310.71,-25.95"/>
</g>
<!-- 7&#45;&gt;5 -->
<g id="edge17" class="edge">
<title>7&#45;&gt;5</title>
<path fill="none" stroke="black" d="M311.96,-287.6C304.98,-268.89 292.34,-238.77 276,-216 268.79,-205.96 259.54,-196.2 250.69,-187.86"/>
<polygon fill="black" stroke="black" points="253.28,-185.48 243.53,-181.34 248.57,-190.66 253.28,-185.48"/>
</g>
<!-- 7&#45;&gt;6 -->
<g id="edge15" class="edge">
<title>7&#45;&gt;6</title>
<path fill="none" stroke="black" d="M294.27,-287.7C282.38,-279.03 267.81,-268.4 254.86,-258.96"/>
<polygon fill="black" stroke="black" points="257.16,-256.3 247.01,-253.24 253.03,-261.96 257.16,-256.3"/>
</g>
</g>
</svg>
