<?xml version="1.0" encoding="UTF-8" standalone="no"?>
<!DOCTYPE svg PUBLIC "-//W3C//DTD SVG 1.1//EN"
 "http://www.w3.org/Graphics/SVG/1.1/DTD/svg11.dtd">
<!-- Generated by graphviz version 2.43.0 (0)
 -->
<!-- Title: %3 Pages: 1 -->
<svg width="525pt" height="476pt"
 viewBox="0.00 0.00 524.50 476.00" xmlns="http://www.w3.org/2000/svg" xmlns:xlink="http://www.w3.org/1999/xlink">
<g id="graph0" class="graph" transform="scale(1 1) rotate(0) translate(4 472)">
<title>%3</title>
<polygon fill="white" stroke="transparent" points="-4,4 -4,-472 520.5,-472 520.5,4 -4,4"/>
<!-- 0 -->
<g id="node1" class="node">
<title>0</title>
<polygon fill="none" stroke="black" points="173,-468 0,-468 0,-432 173,-432 173,-468"/>
<text text-anchor="middle" x="86.5" y="-446.3" font-family="Times,serif" font-size="14.00">temporal&#45;sdk&#45;core&#45;bridge&#45;ffi</text>
</g>
<!-- 1 -->
<g id="node2" class="node">
<title>1</title>
<polygon fill="none" stroke="black" points="369.5,-396 253.5,-396 253.5,-360 369.5,-360 369.5,-396"/>
<text text-anchor="middle" x="311.5" y="-374.3" font-family="Times,serif" font-size="14.00">temporal&#45;sdk&#45;core</text>
</g>
<!-- 0&#45;&gt;1 -->
<g id="edge1" class="edge">
<title>0&#45;&gt;1</title>
<path fill="none" stroke="black" d="M141.25,-431.97C173.1,-422.06 213.42,-409.51 246.83,-399.12"/>
<polygon fill="black" stroke="black" points="247.99,-402.42 256.5,-396.11 245.91,-395.74 247.99,-402.42"/>
</g>
<!-- 6 -->
<g id="node5" class="node">
<title>6</title>
<polygon fill="none" stroke="black" points="401,-36 246,-36 246,0 401,0 401,-36"/>
<text text-anchor="middle" x="323.5" y="-14.3" font-family="Times,serif" font-size="14.00">temporal&#45;sdk&#45;core&#45;protos</text>
</g>
<!-- 0&#45;&gt;6 -->
<g id="edge3" class="edge">
<title>0&#45;&gt;6</title>
<path fill="none" stroke="black" d="M78.81,-431.91C67.71,-405.62 48.5,-353.45 48.5,-307 48.5,-307 48.5,-307 48.5,-161 48.5,-75.33 155.16,-41.29 235.63,-27.8"/>
<polygon fill="black" stroke="black" points="236.47,-31.21 245.8,-26.18 235.37,-24.3 236.47,-31.21"/>
</g>
<!-- 7 -->
<g id="node6" class="node">
<title>7</title>
<polygon fill="none" stroke="black" points="266,-180 129,-180 129,-144 266,-144 266,-180"/>
<text text-anchor="middle" x="197.5" y="-158.3" font-family="Times,serif" font-size="14.00">temporal&#45;sdk&#45;core&#45;api</text>
</g>
<!-- 0&#45;&gt;7 -->
<g id="edge2" class="edge">
<title>0&#45;&gt;7</title>
<path fill="none" stroke="black" d="M85.71,-431.86C84.92,-401.65 85.97,-337.48 105.5,-288 120.88,-249.04 151.5,-211.31 173.18,-187.68"/>
<polygon fill="black" stroke="black" points="175.88,-189.92 180.16,-180.23 170.77,-185.14 175.88,-189.92"/>
</g>
<!-- 2 -->
<g id="node3" class="node">
<title>2</title>
<polygon fill="none" stroke="black" points="172.5,-324 114.5,-324 114.5,-288 172.5,-288 172.5,-324"/>
<text text-anchor="middle" x="143.5" y="-302.3" font-family="Times,serif" font-size="14.00">rustfsm</text>
</g>
<!-- 1&#45;&gt;2 -->
<g id="edge4" class="edge">
<title>1&#45;&gt;2</title>
<path fill="none" stroke="black" d="M270.4,-359.88C243.41,-348.63 208.34,-334.02 181.91,-323"/>
<polygon fill="black" stroke="black" points="183.17,-319.74 172.59,-319.12 180.47,-326.2 183.17,-319.74"/>
</g>
<!-- 5 -->
<g id="node4" class="node">
<title>5</title>
<polygon fill="none" stroke="black" points="412.5,-108 312.5,-108 312.5,-72 412.5,-72 412.5,-108"/>
<text text-anchor="middle" x="362.5" y="-86.3" font-family="Times,serif" font-size="14.00">temporal&#45;client</text>
</g>
<!-- 1&#45;&gt;5 -->
<g id="edge5" class="edge">
<title>1&#45;&gt;5</title>
<path fill="none" stroke="black" d="M369.63,-361.71C391.38,-353.54 414.82,-341.45 431.5,-324 455.23,-299.18 453.17,-285.75 459.5,-252 462.45,-236.27 464.68,-231.14 459.5,-216 445.69,-175.67 412.97,-138.29 389.35,-115.12"/>
<polygon fill="black" stroke="black" points="391.67,-112.5 382.03,-108.11 386.83,-117.55 391.67,-112.5"/>
</g>
<!-- 1&#45;&gt;6 -->
<g id="edge8" class="edge">
<title>1&#45;&gt;6</title>
<path fill="none" stroke="black" d="M369.7,-363.34C430.3,-345.24 516.5,-306.87 516.5,-235 516.5,-235 516.5,-235 516.5,-161 516.5,-98.28 449.55,-60.18 394.51,-39.46"/>
<polygon fill="black" stroke="black" points="395.69,-36.16 385.1,-36.04 393.3,-42.74 395.69,-36.16"/>
</g>
<!-- 1&#45;&gt;7 -->
<g id="edge7" class="edge">
<title>1&#45;&gt;7</title>
<path fill="none" stroke="black" d="M264.03,-359.96C247.39,-351.64 230.2,-339.91 219.5,-324 192.37,-283.65 191.8,-224.66 194.32,-190.41"/>
<polygon fill="black" stroke="black" points="197.83,-190.49 195.22,-180.22 190.86,-189.87 197.83,-190.49"/>
</g>
<!-- 8 -->
<g id="node7" class="node">
<title>8</title>
<polygon fill="none" stroke="black" points="450,-252 361,-252 361,-216 450,-216 450,-252"/>
<text text-anchor="middle" x="405.5" y="-230.3" font-family="Times,serif" font-size="14.00">temporal&#45;sdk</text>
</g>
<!-- 1&#45;&gt;8 -->
<g id="edge6" class="edge">
<title>1&#45;&gt;8</title>
<path fill="none" stroke="blue" d="M354.05,-359.78C369.82,-351.61 386.07,-340.02 395.5,-324 406.38,-305.52 405.76,-280.93 404.34,-262.27"/>
<polygon fill="blue" stroke="blue" points="407.81,-261.75 403.49,-252.07 400.83,-262.32 407.81,-261.75"/>
</g>
<!-- 9 -->
<g id="node8" class="node">
<title>9</title>
<polygon fill="none" stroke="black" points="395,-324 228,-324 228,-288 395,-288 395,-324"/>
<text text-anchor="middle" x="311.5" y="-302.3" font-family="Times,serif" font-size="14.00">temporal&#45;sdk&#45;core&#45;test&#45;utils</text>
</g>
<!-- 1&#45;&gt;9 -->
<g id="edge9" class="edge">
<title>1&#45;&gt;9</title>
<path fill="none" stroke="blue" d="M305.58,-359.7C304.79,-351.98 304.56,-342.71 304.9,-334.11"/>
<polygon fill="blue" stroke="blue" points="308.4,-334.32 305.6,-324.1 301.42,-333.84 308.4,-334.32"/>
</g>
<!-- 5&#45;&gt;6 -->
<g id="edge10" class="edge">
<title>5&#45;&gt;6</title>
<path fill="none" stroke="black" d="M352.86,-71.7C348.37,-63.64 342.94,-53.89 337.98,-44.98"/>
<polygon fill="black" stroke="black" points="340.95,-43.14 333.03,-36.1 334.84,-46.54 340.95,-43.14"/>
</g>
<!-- 7&#45;&gt;5 -->
<g id="edge11" class="edge">
<title>7&#45;&gt;5</title>
<path fill="none" stroke="black" d="M237.86,-143.88C260.52,-134.26 288.97,-122.19 312.97,-112.01"/>
<polygon fill="black" stroke="black" points="314.43,-115.2 322.27,-108.07 311.69,-108.75 314.43,-115.2"/>
</g>
<!-- 7&#45;&gt;6 -->
<g id="edge12" class="edge">
<title>7&#45;&gt;6</title>
<path fill="none" stroke="black" d="M210.74,-143.85C225.01,-125.62 248.63,-96.14 270.5,-72 279.24,-62.36 289.24,-52.16 298.18,-43.31"/>
<polygon fill="black" stroke="black" points="300.7,-45.74 305.39,-36.24 295.8,-40.75 300.7,-45.74"/>
</g>
<!-- 8&#45;&gt;1 -->
<g id="edge14" class="edge">
<title>8&#45;&gt;1</title>
<path fill="none" stroke="black" d="M416.59,-252.07C423.07,-271.04 426.51,-301.89 413.5,-324 405.57,-337.47 392.82,-347.8 378.95,-355.62"/>
<polygon fill="black" stroke="black" points="376.99,-352.69 369.71,-360.39 380.2,-358.91 376.99,-352.69"/>
</g>
<!-- 8&#45;&gt;5 -->
<g id="edge13" class="edge">
<title>8&#45;&gt;5</title>
<path fill="none" stroke="black" d="M400.31,-215.87C392.95,-191.56 379.4,-146.82 370.68,-118.01"/>
<polygon fill="black" stroke="black" points="373.95,-116.75 367.71,-108.19 367.25,-118.77 373.95,-116.75"/>
</g>
<!-- 8&#45;&gt;6 -->
<g id="edge16" class="edge">
<title>8&#45;&gt;6</title>
<path fill="none" stroke="black" d="M413.59,-215.56C426.78,-184.32 448.83,-117.84 421.5,-72 413.54,-58.64 400.91,-48.45 387.34,-40.75"/>
<polygon fill="black" stroke="black" points="388.8,-37.56 378.32,-36.04 385.56,-43.77 388.8,-37.56"/>
</g>
<!-- 8&#45;&gt;7 -->
<g id="edge15" class="edge">
<title>8&#45;&gt;7</title>
<path fill="none" stroke="black" d="M360.88,-217.98C330.78,-207.86 290.71,-194.37 257.79,-183.29"/>
<polygon fill="black" stroke="black" points="258.86,-179.96 248.26,-180.08 256.62,-186.59 258.86,-179.96"/>
</g>
<!-- 9&#45;&gt;1 -->
<g id="edge19" class="edge">
<title>9&#45;&gt;1</title>
<path fill="none" stroke="black" d="M317.4,-324.1C318.2,-331.79 318.44,-341.05 318.1,-349.67"/>
<polygon fill="black" stroke="black" points="314.61,-349.48 317.42,-359.7 321.59,-349.96 314.61,-349.48"/>
</g>
<!-- 9&#45;&gt;5 -->
<g id="edge17" class="edge">
<title>9&#45;&gt;5</title>
<path fill="none" stroke="black" d="M315.59,-287.85C324.43,-250.75 345.39,-162.81 356.04,-118.1"/>
<polygon fill="black" stroke="black" points="359.48,-118.77 358.39,-108.23 352.67,-117.15 359.48,-118.77"/>
</g>
<!-- 9&#45;&gt;6 -->
<g id="edge21" class="edge">
<title>9&#45;&gt;6</title>
<path fill="none" stroke="black" d="M308.43,-287.86C302.03,-249.05 288.97,-151.64 303.5,-72 305.11,-63.2 308.1,-53.95 311.29,-45.7"/>
<polygon fill="black" stroke="black" points="314.62,-46.79 315.19,-36.21 308.15,-44.12 314.62,-46.79"/>
</g>
<!-- 9&#45;&gt;7 -->
<g id="edge20" class="edge">
<title>9&#45;&gt;7</title>
<path fill="none" stroke="black" d="M297.75,-287.87C277.81,-263.03 240.73,-216.85 217.68,-188.14"/>
<polygon fill="black" stroke="black" points="220.29,-185.8 211.3,-180.19 214.83,-190.18 220.29,-185.8"/>
</g>
<!-- 9&#45;&gt;8 -->
<g id="edge18" class="edge">
<title>9&#45;&gt;8</title>
<path fill="none" stroke="black" d="M334.74,-287.7C346.69,-278.8 361.42,-267.82 374.35,-258.2"/>
<polygon fill="black" stroke="black" points="376.6,-260.88 382.53,-252.1 372.42,-255.27 376.6,-260.88"/>
</g>
</g>
</svg>
