<?xml version="1.0" encoding="UTF-8" standalone="no"?>
<!DOCTYPE svg PUBLIC "-//W3C//DTD SVG 1.1//EN"
 "http://www.w3.org/Graphics/SVG/1.1/DTD/svg11.dtd">
<!-- Generated by graphviz version 14.0.0 (0)
 -->
<!-- Pages: 1 -->
<svg width="427pt" height="404pt"
 viewBox="0.00 0.00 427.00 404.00" xmlns="http://www.w3.org/2000/svg" xmlns:xlink="http://www.w3.org/1999/xlink">
<g id="graph0" class="graph" transform="scale(1 1) rotate(0) translate(4 400)">
<polygon fill="white" stroke="none" points="-4,4 -4,-400 423.38,-400 423.38,4 -4,4"/>
<!-- 0 -->
<g id="node1" class="node">
<title>0</title>
<polygon fill="none" stroke="black" points="287.25,-324 171.5,-324 171.5,-288 287.25,-288 287.25,-324"/>
<text xml:space="preserve" text-anchor="middle" x="229.38" y="-300.95" font-family="Times,serif" font-size="14.00">temporal&#45;sdk&#45;core</text>
</g>
<!-- 1 -->
<g id="node2" class="node">
<title>1</title>
<polygon fill="none" stroke="black" points="353,-252 295.75,-252 295.75,-216 353,-216 353,-252"/>
<text xml:space="preserve" text-anchor="middle" x="324.38" y="-228.95" font-family="Times,serif" font-size="14.00">rustfsm</text>
</g>
<!-- 0&#45;&gt;1 -->
<g id="edge1" class="edge">
<title>0&#45;&gt;1</title>
<path fill="none" stroke="black" d="M252.86,-287.7C264.62,-279.03 279.05,-268.4 291.85,-258.96"/>
<polygon fill="black" stroke="black" points="293.64,-261.99 299.61,-253.24 289.49,-256.36 293.64,-261.99"/>
</g>
<!-- 3 -->
<g id="node3" class="node">
<title>3</title>
<polygon fill="none" stroke="black" points="282,-180 182.75,-180 182.75,-144 282,-144 282,-180"/>
<text xml:space="preserve" text-anchor="middle" x="232.38" y="-156.95" font-family="Times,serif" font-size="14.00">temporal&#45;client</text>
</g>
<!-- 0&#45;&gt;3 -->
<g id="edge2" class="edge">
<title>0&#45;&gt;3</title>
<path fill="none" stroke="black" d="M229.74,-287.59C230.25,-263.61 231.17,-220.14 231.77,-191.42"/>
<polygon fill="black" stroke="black" points="235.27,-191.7 231.98,-181.62 228.27,-191.55 235.27,-191.7"/>
</g>
<!-- 4 -->
<g id="node4" class="node">
<title>4</title>
<polygon fill="none" stroke="black" points="136.75,-108 0,-108 0,-72 136.75,-72 136.75,-108"/>
<text xml:space="preserve" text-anchor="middle" x="68.38" y="-84.95" font-family="Times,serif" font-size="14.00">temporal&#45;sdk&#45;core&#45;api</text>
</g>
<!-- 0&#45;&gt;4 -->
<g id="edge4" class="edge">
<title>0&#45;&gt;4</title>
<path fill="none" stroke="black" d="M171.26,-292.81C147.32,-284.96 121.28,-272.28 104.38,-252 72.96,-214.31 67.47,-154.97 67.27,-119.83"/>
<polygon fill="black" stroke="black" points="70.77,-120.04 67.38,-110 63.77,-119.96 70.77,-120.04"/>
</g>
<!-- 5 -->
<g id="node5" class="node">
<title>5</title>
<polygon fill="none" stroke="black" points="309.38,-36 155.38,-36 155.38,0 309.38,0 309.38,-36"/>
<text xml:space="preserve" text-anchor="middle" x="232.38" y="-12.95" font-family="Times,serif" font-size="14.00">temporal&#45;sdk&#45;core&#45;protos</text>
</g>
<!-- 0&#45;&gt;5 -->
<g id="edge5" class="edge">
<title>0&#45;&gt;5</title>
<path fill="none" stroke="black" d="M241.16,-287.77C256.28,-264.53 281.7,-221.27 291.38,-180 302.78,-131.35 273.87,-77.29 252.6,-45.83"/>
<polygon fill="black" stroke="black" points="255.5,-43.86 246.9,-37.68 249.77,-47.88 255.5,-43.86"/>
</g>
<!-- 6 -->
<g id="node6" class="node">
<title>6</title>
<polygon fill="none" stroke="black" points="201.38,-252 113.38,-252 113.38,-216 201.38,-216 201.38,-252"/>
<text xml:space="preserve" text-anchor="middle" x="157.38" y="-228.95" font-family="Times,serif" font-size="14.00">temporal&#45;sdk</text>
</g>
<!-- 0&#45;&gt;6 -->
<g id="edge3" class="edge">
<title>0&#45;&gt;6</title>
<path fill="none" stroke="blue" d="M205.66,-287.7C196.36,-279.47 185.88,-269.48 177,-260.42"/>
<polygon fill="blue" stroke="blue" points="179.55,-258.02 170.12,-253.2 174.48,-262.85 179.55,-258.02"/>
</g>
<!-- 3&#45;&gt;4 -->
<g id="edge6" class="edge">
<title>3&#45;&gt;4</title>
<path fill="none" stroke="black" d="M191.41,-143.52C169.61,-134.21 142.59,-122.68 119.43,-112.79"/>
<polygon fill="black" stroke="black" points="121.06,-109.68 110.49,-108.98 118.31,-116.12 121.06,-109.68"/>
</g>
<!-- 3&#45;&gt;5 -->
<g id="edge7" class="edge">
<title>3&#45;&gt;5</title>
<path fill="none" stroke="black" d="M232.38,-143.59C232.38,-119.61 232.38,-76.14 232.38,-47.42"/>
<polygon fill="black" stroke="black" points="235.88,-47.62 232.38,-37.62 228.88,-47.62 235.88,-47.62"/>
</g>
<!-- 4&#45;&gt;5 -->
<g id="edge8" class="edge">
<title>4&#45;&gt;5</title>
<path fill="none" stroke="black" d="M109.34,-71.52C131.14,-62.21 158.16,-50.68 181.32,-40.79"/>
<polygon fill="black" stroke="black" points="182.44,-44.12 190.26,-36.98 179.69,-37.68 182.44,-44.12"/>
</g>
<!-- 6&#45;&gt;0 -->
<g id="edge10" class="edge">
<title>6&#45;&gt;0</title>
<path fill="none" stroke="black" d="M181.14,-252.35C190.38,-260.51 200.77,-270.42 209.6,-279.42"/>
<polygon fill="black" stroke="black" points="207.01,-281.79 216.45,-286.6 212.07,-276.95 207.01,-281.79"/>
</g>
<!-- 6&#45;&gt;3 -->
<g id="edge9" class="edge">
<title>6&#45;&gt;3</title>
<path fill="none" stroke="black" d="M175.91,-215.7C184.84,-207.37 195.71,-197.22 205.52,-188.07"/>
<polygon fill="black" stroke="black" points="207.76,-190.76 212.68,-181.38 202.98,-185.64 207.76,-190.76"/>
</g>
<!-- 6&#45;&gt;4 -->
<g id="edge11" class="edge">
<title>6&#45;&gt;4</title>
<path fill="none" stroke="black" d="M146.46,-215.59C131.1,-191.08 102.97,-146.19 85,-117.52"/>
<polygon fill="black" stroke="black" points="88.18,-116.01 79.9,-109.39 82.25,-119.73 88.18,-116.01"/>
</g>
<!-- 6&#45;&gt;5 -->
<g id="edge12" class="edge">
<title>6&#45;&gt;5</title>
<path fill="none" stroke="black" d="M159.13,-215.61C161.28,-197.43 165.63,-168.22 173.38,-144 184.58,-108.96 203.52,-71.05 216.92,-46.29"/>
<polygon fill="black" stroke="black" points="219.98,-47.98 221.73,-37.53 213.85,-44.61 219.98,-47.98"/>
</g>
<!-- 7 -->
<g id="node7" class="node">
<title>7</title>
<polygon fill="none" stroke="black" points="388,-396 222.75,-396 222.75,-360 388,-360 388,-396"/>
<text xml:space="preserve" text-anchor="middle" x="305.38" y="-372.95" font-family="Times,serif" font-size="14.00">temporal&#45;sdk&#45;core&#45;c&#45;bridge</text>
</g>
<!-- 7&#45;&gt;0 -->
<g id="edge14" class="edge">
<title>7&#45;&gt;0</title>
<path fill="none" stroke="black" d="M286.59,-359.7C277.55,-351.37 266.53,-341.22 256.59,-332.07"/>
<polygon fill="black" stroke="black" points="259.05,-329.57 249.32,-325.37 254.31,-334.72 259.05,-329.57"/>
</g>
<!-- 7&#45;&gt;3 -->
<g id="edge13" class="edge">
<title>7&#45;&gt;3</title>
<path fill="none" stroke="black" d="M321.05,-359.74C347.18,-328.79 393.81,-262.76 362.38,-216 346.79,-192.81 319.1,-179.77 293.27,-172.43"/>
<polygon fill="black" stroke="black" points="294.37,-169.1 283.82,-169.99 292.63,-175.87 294.37,-169.1"/>
</g>
<!-- 7&#45;&gt;4 -->
<g id="edge15" class="edge">
<title>7&#45;&gt;4</title>
<path fill="none" stroke="black" d="M236.58,-359.59C183.26,-342.06 112.97,-309.23 79.38,-252 55.27,-210.94 58.32,-153.43 63.1,-119.42"/>
<polygon fill="black" stroke="black" points="66.5,-120.35 64.58,-109.93 59.58,-119.27 66.5,-120.35"/>
</g>
<!-- 7&#45;&gt;5 -->
<g id="edge16" class="edge">
<title>7&#45;&gt;5</title>
<path fill="none" stroke="black" d="M332.97,-359.56C366.71,-335.84 419.38,-290.01 419.38,-235 39.38,0 39.38,0 419.38,-161 419.38,-99.85 355.17,-61.61 302.01,-40.43"/>
<polygon fill="black" stroke="black" points="303.55,-37.27 292.96,-36.96 301.04,-43.8 303.55,-37.27"/>
</g>
</g>
</svg>
