<?xml version="1.0" encoding="UTF-8" standalone="no"?>
<!DOCTYPE svg PUBLIC "-//W3C//DTD SVG 1.1//EN"
 "http://www.w3.org/Graphics/SVG/1.1/DTD/svg11.dtd">
<!-- Generated by graphviz version 2.50.0 (0)
 -->
<!-- Pages: 1 -->
<svg width="421pt" height="404pt"
 viewBox="0.00 0.00 420.50 404.00" xmlns="http://www.w3.org/2000/svg" xmlns:xlink="http://www.w3.org/1999/xlink">
<g id="graph0" class="graph" transform="scale(1 1) rotate(0) translate(4 400)">
<polygon fill="white" stroke="transparent" points="-4,4 -4,-400 416.5,-400 416.5,4 -4,4"/>
<!-- 0 -->
<g id="node1" class="node">
<title>0</title>
<polygon fill="none" stroke="black" points="248,-396 132,-396 132,-360 248,-360 248,-396"/>
<text text-anchor="middle" x="190" y="-374.3" font-family="Times,serif" font-size="14.00">temporal&#45;sdk&#45;core</text>
</g>
<!-- 1 -->
<g id="node2" class="node">
<title>1</title>
<polygon fill="none" stroke="black" points="58,-324 0,-324 0,-288 58,-288 58,-324"/>
<text text-anchor="middle" x="29" y="-302.3" font-family="Times,serif" font-size="14.00">rustfsm</text>
</g>
<!-- 0&#45;&gt;1 -->
<g id="edge1" class="edge">
<title>0&#45;&gt;1</title>
<path fill="none" stroke="black" d="M150.61,-359.88C125.27,-348.86 92.5,-334.61 67.36,-323.68"/>
<polygon fill="black" stroke="black" points="68.7,-320.44 58.13,-319.67 65.91,-326.86 68.7,-320.44"/>
</g>
<!-- 4 -->
<g id="node3" class="node">
<title>4</title>
<polygon fill="none" stroke="black" points="214,-108 114,-108 114,-72 214,-72 214,-108"/>
<text text-anchor="middle" x="164" y="-86.3" font-family="Times,serif" font-size="14.00">temporal&#45;client</text>
</g>
<!-- 0&#45;&gt;4 -->
<g id="edge2" class="edge">
<title>0&#45;&gt;4</title>
<path fill="none" stroke="black" d="M181.7,-359.96C171.44,-325.92 157.74,-247.02 153,-180 151.87,-164.04 152.7,-160 153,-144 153.16,-135.58 153.46,-126.42 154.19,-118.12"/>
<polygon fill="black" stroke="black" points="157.67,-118.52 155.37,-108.18 150.71,-117.7 157.67,-118.52"/>
</g>
<!-- 0&#45;&gt;4 -->
<g id="edge3" class="edge">
<title>0&#45;&gt;4</title>
<path fill="none" stroke="blue" d="M191.8,-359.96C189.44,-325.92 175.74,-247.02 171,-180 169.87,-164.04 170.7,-160 171,-144 171.16,-135.68 171.45,-126.63 171.37,-118.4"/>
<polygon fill="blue" stroke="blue" points="174.86,-118.05 171.01,-108.18 167.87,-118.3 174.86,-118.05"/>
</g>
<!-- 5 -->
<g id="node4" class="node">
<title>5</title>
<polygon fill="none" stroke="black" points="319.5,-36 164.5,-36 164.5,0 319.5,0 319.5,-36"/>
<text text-anchor="middle" x="242" y="-14.3" font-family="Times,serif" font-size="14.00">temporal&#45;sdk&#45;core&#45;protos</text>
</g>
<!-- 0&#45;&gt;5 -->
<g id="edge6" class="edge">
<title>0&#45;&gt;5</title>
<path fill="none" stroke="black" d="M165.88,-359.82C135.16,-335.73 86,-288.78 86,-235 86,-235 86,-235 86,-161 86,-120.55 78.76,-102.78 105,-72 118.09,-56.64 136.18,-45.72 154.93,-37.95"/>
<polygon fill="black" stroke="black" points="156.39,-41.14 164.46,-34.27 153.87,-34.6 156.39,-41.14"/>
</g>
<!-- 6 -->
<g id="node5" class="node">
<title>6</title>
<polygon fill="none" stroke="black" points="307.5,-180 170.5,-180 170.5,-144 307.5,-144 307.5,-180"/>
<text text-anchor="middle" x="239" y="-158.3" font-family="Times,serif" font-size="14.00">temporal&#45;sdk&#45;core&#45;api</text>
</g>
<!-- 0&#45;&gt;6 -->
<g id="edge5" class="edge">
<title>0&#45;&gt;6</title>
<path fill="none" stroke="black" d="M193.8,-359.93C197.8,-342.01 204.29,-313.01 210,-288 217.68,-254.36 226.68,-215.68 232.6,-190.36"/>
<polygon fill="black" stroke="black" points="236.06,-190.92 234.93,-180.38 229.24,-189.32 236.06,-190.92"/>
</g>
<!-- 7 -->
<g id="node6" class="node">
<title>7</title>
<polygon fill="none" stroke="black" points="412.5,-252 323.5,-252 323.5,-216 412.5,-216 412.5,-252"/>
<text text-anchor="middle" x="368" y="-230.3" font-family="Times,serif" font-size="14.00">temporal&#45;sdk</text>
</g>
<!-- 0&#45;&gt;7 -->
<g id="edge4" class="edge">
<title>0&#45;&gt;7</title>
<path fill="none" stroke="blue" d="M224.19,-359.83C242.9,-350.78 265.76,-338.54 284,-324 307.09,-305.6 328.26,-279.21 343.85,-259.94"/>
<polygon fill="blue" stroke="blue" points="346.58,-262.13 350.18,-252.17 341.15,-257.71 346.58,-262.13"/>
</g>
<!-- 8 -->
<g id="node7" class="node">
<title>8</title>
<polygon fill="none" stroke="black" points="283.5,-324 218.5,-324 218.5,-288 283.5,-288 283.5,-324"/>
<text text-anchor="middle" x="251" y="-302.3" font-family="Times,serif" font-size="14.00">test_utils</text>
</g>
<!-- 0&#45;&gt;8 -->
<g id="edge7" class="edge">
<title>0&#45;&gt;8</title>
<path fill="none" stroke="blue" d="M199.16,-359.7C205.68,-351.22 214.51,-340.86 223.1,-331.58"/>
<polygon fill="blue" stroke="blue" points="225.85,-333.77 230.2,-324.1 220.78,-328.95 225.85,-333.77"/>
</g>
<!-- 4&#45;&gt;5 -->
<g id="edge8" class="edge">
<title>4&#45;&gt;5</title>
<path fill="none" stroke="black" d="M183.28,-71.7C192.92,-63.05 204.73,-52.45 215.23,-43.03"/>
<polygon fill="black" stroke="black" points="217.84,-45.39 222.94,-36.1 213.16,-40.18 217.84,-45.39"/>
</g>
<!-- 6&#45;&gt;4 -->
<g id="edge9" class="edge">
<title>6&#45;&gt;4</title>
<path fill="none" stroke="black" d="M220.46,-143.7C211.2,-135.05 199.84,-124.45 189.74,-115.03"/>
<polygon fill="black" stroke="black" points="192.02,-112.37 182.33,-108.1 187.25,-117.49 192.02,-112.37"/>
</g>
<!-- 6&#45;&gt;5 -->
<g id="edge10" class="edge">
<title>6&#45;&gt;5</title>
<path fill="none" stroke="black" d="M239.36,-143.87C239.87,-119.67 240.81,-75.21 241.42,-46.39"/>
<polygon fill="black" stroke="black" points="244.92,-46.26 241.64,-36.19 237.93,-46.11 244.92,-46.26"/>
</g>
<!-- 7&#45;&gt;0 -->
<g id="edge11" class="edge">
<title>7&#45;&gt;0</title>
<path fill="none" stroke="black" d="M363.18,-252.17C352.26,-271.5 328.39,-302.97 302,-324 286.4,-336.43 267.42,-347.19 249.5,-355.7"/>
<polygon fill="black" stroke="black" points="247.88,-352.6 240.25,-359.95 250.8,-358.96 247.88,-352.6"/>
</g>
<!-- 7&#45;&gt;5 -->
<g id="edge13" class="edge">
<title>7&#45;&gt;5</title>
<path fill="none" stroke="black" d="M371.05,-215.88C375.69,-184.29 380.99,-116.06 350,-72 340.45,-58.42 326.41,-48.16 311.6,-40.47"/>
<polygon fill="black" stroke="black" points="312.84,-37.19 302.31,-36.01 309.81,-43.5 312.84,-37.19"/>
</g>
<!-- 7&#45;&gt;6 -->
<g id="edge12" class="edge">
<title>7&#45;&gt;6</title>
<path fill="none" stroke="black" d="M336.44,-215.88C319.34,-206.6 298.02,-195.03 279.68,-185.08"/>
<polygon fill="black" stroke="black" points="281.14,-181.88 270.68,-180.19 277.8,-188.04 281.14,-181.88"/>
</g>
<!-- 8&#45;&gt;0 -->
<g id="edge15" class="edge">
<title>8&#45;&gt;0</title>
<path fill="none" stroke="black" d="M241.99,-324.1C235.51,-332.55 226.69,-342.9 218.1,-352.2"/>
<polygon fill="black" stroke="black" points="215.33,-350.03 210.99,-359.7 220.41,-354.85 215.33,-350.03"/>
</g>
<!-- 8&#45;&gt;5 -->
<g id="edge17" class="edge">
<title>8&#45;&gt;5</title>
<path fill="none" stroke="black" d="M266.47,-287.62C290.36,-258.6 332,-198.15 317,-144 306.53,-106.2 281.25,-68.36 262.93,-44.38"/>
<polygon fill="black" stroke="black" points="265.45,-41.92 256.54,-36.2 259.94,-46.23 265.45,-41.92"/>
</g>
<!-- 8&#45;&gt;6 -->
<g id="edge16" class="edge">
<title>8&#45;&gt;6</title>
<path fill="none" stroke="black" d="M249.55,-287.87C247.51,-263.67 243.75,-219.21 241.31,-190.39"/>
<polygon fill="black" stroke="black" points="244.78,-189.86 240.45,-180.19 237.81,-190.45 244.78,-189.86"/>
</g>
<!-- 8&#45;&gt;7 -->
<g id="edge14" class="edge">
<title>8&#45;&gt;7</title>
<path fill="none" stroke="black" d="M279.62,-287.88C294.92,-278.72 313.94,-267.34 330.42,-257.48"/>
<polygon fill="black" stroke="black" points="332.48,-260.33 339.27,-252.19 328.89,-254.32 332.48,-260.33"/>
</g>
</g>
</svg>
